<svg xmlns="http://www.w3.org/2000/svg" viewBox="0 0 400 300" width="406" height="306" class="illustration styles_illustrationTablet__1DWOa"><g id="_556_bank_note_outline" data-name="#556_bank_note_outline"><polygon points="98.47 181.35 98.47 119.66 145.49 146.81 145.49 208.51 98.47 181.35" fill="#68e1fd"></polygon><path d="M145.49,209.51a1,1,0,0,1-.5-.14L98,182.22a1,1,0,0,1-.5-.86v-61.7a1,1,0,0,1,.5-.87,1,1,0,0,1,1,0l47,27.15a1,1,0,0,1,.5.87v61.7a1,1,0,0,1-.5.86A1,1,0,0,1,145.49,209.51Zm-46-28.73,45,26V147.39l-45-26Z" fill="#093f68"></path><polygon points="145.5 208.52 145.5 146.82 247.2 88.06 247.2 149.76 145.5 208.52" fill="#093f68"></polygon><path d="M145.5,209.52a1,1,0,0,1-.5-.13,1,1,0,0,1-.5-.87v-61.7a1,1,0,0,1,.5-.86L246.7,87.2a1,1,0,0,1,1,0,1,1,0,0,1,.5.86v61.7a1,1,0,0,1-.5.87L146,209.39A1,1,0,0,1,145.5,209.52Zm1-62.12v59.39l99.7-57.61V89.79Z" fill="#093f68"></path><path d="M145.49,155.08a1,1,0,0,1-.5-.13L98,127.8a1,1,0,0,1,1-1.74l46.53,26.87L246.7,94.49a1,1,0,0,1,1,1.74L146,155A1,1,0,0,1,145.49,155.08Z" fill="#093f68"></path><path d="M145.49,164.33a1,1,0,0,1-.5-.13L98,137.05a1,1,0,0,1,1-1.73l46.53,26.86L246.7,103.75a1,1,0,0,1,1.36.36,1,1,0,0,1-.36,1.37L146,164.2A1,1,0,0,1,145.49,164.33Z" fill="#093f68"></path><path d="M145.49,173.59a1,1,0,0,1-.5-.14L98,146.3a1,1,0,0,1,1-1.73l46.53,26.86L246.7,113a1,1,0,0,1,1,1.73L146,173.45A1,1,0,0,1,145.49,173.59Z" fill="#093f68"></path><path d="M145.49,182.84a1,1,0,0,1-.5-.13L98,155.56a1,1,0,0,1-.36-1.37,1,1,0,0,1,1.36-.36l46.53,26.86L246.7,122.25a1,1,0,0,1,1,1.74L146,182.71A1,1,0,0,1,145.49,182.84Z" fill="#093f68"></path><path d="M145.49,192.1a1,1,0,0,1-.5-.14L98,164.81a1,1,0,0,1,1-1.73l46.53,26.86L246.7,131.51a1,1,0,0,1,1,1.73L146,192A1,1,0,0,1,145.49,192.1Z" fill="#093f68"></path><path d="M145.49,201.35a1.09,1.09,0,0,1-.5-.13L98,174.07a1,1,0,0,1,1-1.74l46.53,26.87L246.7,140.76a1,1,0,0,1,1,1.74L146,201.22A1.13,1.13,0,0,1,145.49,201.35Z" fill="#093f68"></path><polygon points="205.78 173.41 185.82 184.94 185.82 123.6 205.78 112.08 205.78 173.41" fill="#fff"></polygon><path d="M185.82,185.94a1,1,0,0,1-.5-.14,1,1,0,0,1-.5-.86V123.6a1,1,0,0,1,.5-.86l20-11.53a1,1,0,0,1,1,0,1,1,0,0,1,.5.87v61.33a1,1,0,0,1-.5.87l-20,11.52A1,1,0,0,1,185.82,185.94Zm1-61.76v59l18-10.37v-59Zm19,49.23h0Z" fill="#093f68"></path><polygon points="98.46 119.66 200.17 60.94 247.2 88.09 145.49 146.81 98.46 119.66" fill="#68e1fd"></polygon><path d="M145.49,147.81a1,1,0,0,1-.5-.13L98,120.53a1,1,0,0,1,0-1.73L199.67,60.08a1,1,0,0,1,1,0l47,27.15a1,1,0,0,1,0,1.73L146,147.68A1,1,0,0,1,145.49,147.81Zm-45-28.15,45,26L245.2,88.09l-45-26Z" fill="#093f68"></path><path d="M138.33,134.94l-19.84-11.46.27-.15c4.45-2.56,4.53-6.69.24-9.31l70.84-40.9c4.54,2.47,11.69,2.42,16.14-.14l.26-.16,19.84,11.45-.28.15c-4.44,2.57-4.51,6.7-.24,9.32l-70.85,40.9c-4.53-2.47-11.68-2.43-16.12.14A2.26,2.26,0,0,0,138.33,134.94Z" fill="#68e1fd"></path><path d="M138.33,135.94a1,1,0,0,1-.5-.14L118,124.35a1,1,0,0,1-.5-.9,1,1,0,0,1,.56-.87l.21-.11c1.85-1.07,2.88-2.43,2.9-3.83s-.94-2.7-2.68-3.76A1,1,0,0,1,118,114a1,1,0,0,1,.5-.85l70.84-40.91a1,1,0,0,1,1,0c4.24,2.31,11,2.25,15.16-.13l.19-.12a1,1,0,0,1,1.07,0l19.84,11.46a1,1,0,0,1-.07,1.76l-.2.12c-1.85,1.07-2.88,2.42-2.9,3.82s.93,2.71,2.67,3.78a1,1,0,0,1,.48.86,1,1,0,0,1-.5.85l-70.85,40.91a1,1,0,0,1-1,0c-4.23-2.31-11-2.26-15.14.12l-.2.12A1,1,0,0,1,138.33,135.94Zm-17.92-12.5,17.91,10.34a19.32,19.32,0,0,1,16.37-.28l69-39.86a5.89,5.89,0,0,1-2.32-4.55,6.15,6.15,0,0,1,2.74-4.77L206.24,74a19.32,19.32,0,0,1-16.37.28l-69,39.86a5.9,5.9,0,0,1,2.33,4.55A6.18,6.18,0,0,1,120.41,123.44Z" fill="#093f68"></path><polygon points="138.79 96.38 158.75 84.86 205.78 112.01 185.82 123.53 138.79 96.38" fill="#fff"></polygon><path d="M185.82,124.53a1,1,0,0,1-.5-.13l-47-27.15a1,1,0,0,1,0-1.74l20-11.52a1,1,0,0,1,1,0l47,27.15a1,1,0,0,1,.5.87,1,1,0,0,1-.5.86l-20,11.53A1,1,0,0,1,185.82,124.53Zm-45-28.15,45,26,18-10.37-45-26Z" fill="#093f68"></path><polygon points="152.81 211.89 152.81 150.19 199.84 177.35 199.84 239.04 152.81 211.89" fill="#68e1fd"></polygon><path d="M199.83,240a1,1,0,0,1-.5-.13l-47-27.15a1,1,0,0,1-.5-.87V150.2a1,1,0,0,1,.5-.87,1,1,0,0,1,1,0l47,27.15a1,1,0,0,1,.5.87V239a1,1,0,0,1-.5.87A1,1,0,0,1,199.83,240Zm-46-28.72,45,26V177.92l-45-26Z" fill="#093f68"></path><polygon points="199.84 239.06 199.84 177.36 301.54 118.6 301.54 180.3 199.84 239.06" fill="#68e1fd"></polygon><path d="M199.84,240.06a1,1,0,0,1-.5-.14,1,1,0,0,1-.5-.86v-61.7a1,1,0,0,1,.5-.87L301,117.73a1,1,0,0,1,1,0,1,1,0,0,1,.5.87v61.7a1,1,0,0,1-.5.86l-101.7,58.76A1,1,0,0,1,199.84,240.06Zm1-62.12v59.39l99.7-57.61V120.33Z" fill="#093f68"></path><path d="M199.83,185.62a1,1,0,0,1-.5-.14l-47-27.15a1,1,0,0,1,1-1.73l46.53,26.86L301,125a1,1,0,0,1,1,1.73L200.33,185.48A1,1,0,0,1,199.83,185.62Z" fill="#093f68"></path><path d="M199.83,194.87a1,1,0,0,1-.5-.13l-47-27.15a1,1,0,0,1-.36-1.37,1,1,0,0,1,1.36-.36l46.53,26.86L301,134.29a1,1,0,0,1,1.36.36A1,1,0,0,1,302,136L200.33,194.74A1,1,0,0,1,199.83,194.87Z" fill="#093f68"></path><path d="M199.83,204.13a1,1,0,0,1-.5-.14l-47-27.15a1,1,0,0,1-.36-1.37,1,1,0,0,1,1.36-.36L199.83,202,301,143.54a1,1,0,0,1,1.36.36,1,1,0,0,1-.36,1.37L200.33,204A1,1,0,0,1,199.83,204.13Z" fill="#093f68"></path><path d="M199.83,213.38a1.09,1.09,0,0,1-.5-.13l-47-27.16a1,1,0,0,1,1-1.73l46.53,26.87L301,152.79a1,1,0,0,1,1,1.73L200.33,213.25A1.09,1.09,0,0,1,199.83,213.38Z" fill="#093f68"></path><path d="M199.83,222.63a1,1,0,0,1-.5-.13l-47-27.15a1,1,0,0,1-.36-1.37,1,1,0,0,1,1.36-.36l46.53,26.86L301,162.05a1,1,0,0,1,1.36.36,1,1,0,0,1-.36,1.37L200.33,222.5A1,1,0,0,1,199.83,222.63Z" fill="#093f68"></path><path d="M199.83,231.89a1,1,0,0,1-.5-.14l-47-27.15a1,1,0,0,1,1-1.73l46.53,26.86L301,171.3a1,1,0,0,1,1,1.73L200.33,231.75A1,1,0,0,1,199.83,231.89Z" fill="#093f68"></path><polygon points="260.12 203.95 240.16 215.47 240.16 154.14 260.12 142.62 260.12 203.95" fill="#fff"></polygon><path d="M240.16,216.47a1,1,0,0,1-.5-.13,1,1,0,0,1-.5-.87V154.14a1,1,0,0,1,.5-.86l20-11.53a1,1,0,0,1,1,0,1,1,0,0,1,.5.87V204a1,1,0,0,1-.5.87l-20,11.52A1,1,0,0,1,240.16,216.47Zm1-61.75v59l18-10.36v-59Zm19,49.23h0Z" fill="#093f68"></path><polygon points="152.8 150.2 254.51 91.48 301.54 118.63 199.83 177.35 152.8 150.2" fill="#68e1fd"></polygon><path d="M199.83,178.35a1,1,0,0,1-.5-.13l-47-27.15a1,1,0,0,1,0-1.74L254,90.61a1,1,0,0,1,1,0l47,27.15a1,1,0,0,1,0,1.74L200.33,178.22A1,1,0,0,1,199.83,178.35Zm-45-28.15,45,26,99.71-57.57-45-26Z" fill="#093f68"></path><path d="M192.67,165.47,172.83,154l.28-.15c4.44-2.57,4.52-6.69.23-9.31l70.85-40.9c4.53,2.47,11.69,2.42,16.13-.14l.26-.16,19.84,11.45-.28.15c-4.44,2.57-4.51,6.7-.24,9.32l-70.85,40.9c-4.53-2.47-11.68-2.43-16.12.13Z" fill="#68e1fd"></path><path d="M192.67,166.47a1,1,0,0,1-.5-.13l-19.84-11.45a1,1,0,0,1,.06-1.77l.2-.11c1.86-1.07,2.89-2.43,2.91-3.83s-.94-2.7-2.68-3.77a1,1,0,0,1,0-1.72l70.85-40.9a1,1,0,0,1,1,0c4.23,2.31,11,2.25,15.15-.13l.2-.12a1,1,0,0,1,1.06,0l19.84,11.45a1,1,0,0,1-.06,1.77l-.2.11c-1.86,1.07-2.89,2.43-2.91,3.83s.93,2.71,2.67,3.77a1,1,0,0,1,0,1.72l-70.85,40.91a1,1,0,0,1-1,0c-4.24-2.31-11-2.26-15.15.12a1.49,1.49,0,0,0-.2.12A1,1,0,0,1,192.67,166.47ZM174.75,154l17.92,10.34A19.27,19.27,0,0,1,209,164l69-39.86a5.9,5.9,0,0,1-2.32-4.55,6.2,6.2,0,0,1,2.75-4.78l-17.92-10.34a19.29,19.29,0,0,1-16.37.28l-69,39.86a6,6,0,0,1,2.32,4.55A6.17,6.17,0,0,1,174.75,154Z" fill="#093f68"></path><polygon points="193.13 126.92 213.09 115.39 260.12 142.54 240.16 154.07 193.13 126.92" fill="#fff"></polygon><path d="M240.16,155.07a1,1,0,0,1-.5-.14l-47-27.15a1,1,0,0,1,0-1.73l20-11.52a1,1,0,0,1,1,0l47,27.15a1,1,0,0,1,0,1.73l-20,11.52A1,1,0,0,1,240.16,155.07Zm-45-28.15,45,26,18-10.37-45-26Z" fill="#093f68"></path></g></svg>